<svg width="150" height="150" viewBox="0 0 150 150" fill="none" xmlns="http://www.w3.org/2000/svg">
<path d="M75 75C75 108.258 48.0392 135.219 14.7813 135.219C-18.4766 135.219 14.7812 108.258 14.7812 75C14.7812 41.7421 -18.4766 14.7813 14.7813 14.7813C48.0392 14.7813 75 41.7421 75 75Z" fill="url(#paint0_linear)"/>
<path d="M135.219 135.219C135.219 168.477 108.258 135.219 75 135.219C41.7422 135.219 14.7813 168.477 14.7813 135.219C14.7813 101.961 41.7422 75 75 75C108.258 75 135.219 101.961 135.219 135.219Z" fill="url(#paint1_linear)"/>
<path d="M135.219 75C135.219 108.258 168.477 135.219 135.219 135.219C101.961 135.219 75 108.258 75 75C75 41.7421 101.961 14.7813 135.219 14.7813C168.477 14.7813 135.219 41.7421 135.219 75Z" fill="url(#paint2_linear)"/>
<path d="M135.219 14.7813C135.219 48.0392 108.258 75 75 75C41.7422 75 14.7813 48.0392 14.7813 14.7813C14.7813 -18.4766 41.7422 14.7813 75 14.7813C108.258 14.7813 135.219 -18.4766 135.219 14.7813Z" fill="url(#paint3_linear)"/>
<defs>
<linearGradient id="paint0_linear" x1="135.219" y1="14.7813" x2="14.7812" y2="14.7813" gradientUnits="userSpaceOnUse">
<stop stop-color="#0F2757"/>
<stop offset="1" stop-color="#2055BD" stop-opacity="0.825489"/>
</linearGradient>
<linearGradient id="paint1_linear" x1="135.219" y1="14.7813" x2="14.7812" y2="14.7813" gradientUnits="userSpaceOnUse">
<stop stop-color="#0F2757"/>
<stop offset="1" stop-color="#2055BD" stop-opacity="0.825489"/>
</linearGradient>
<linearGradient id="paint2_linear" x1="135.219" y1="14.7813" x2="14.7812" y2="14.7813" gradientUnits="userSpaceOnUse">
<stop stop-color="#0F2757"/>
<stop offset="1" stop-color="#2055BD" stop-opacity="0.825489"/>
</linearGradient>
<linearGradient id="paint3_linear" x1="135.219" y1="14.7813" x2="14.7812" y2="14.7813" gradientUnits="userSpaceOnUse">
<stop stop-color="#0F2757"/>
<stop offset="1" stop-color="#2055BD" stop-opacity="0.825489"/>
</linearGradient>
</defs>
</svg>
