<svg width="1440" height="701" viewBox="0 0 1440 701" fill="none" xmlns="http://www.w3.org/2000/svg">
<path fill-rule="evenodd" clip-rule="evenodd" d="M0 0H670.357C690.308 47.4694 834.989 121.146 1118.9 121.146C1402.82 121.146 1440 199.866 1440 282.938V698.639C1401.59 684.644 1358.65 676.816 1313.33 676.816C1270.9 676.816 1230.55 683.68 1194.05 696.045C1175.24 702.416 1154.76 702.416 1135.95 696.045C1099.45 683.68 1059.1 676.816 1016.67 676.816C974.235 676.816 933.884 683.68 897.382 696.045C878.574 702.416 858.093 702.416 839.285 696.045C802.783 683.68 762.432 676.816 720 676.816C677.568 676.816 637.218 683.68 600.715 696.045C581.907 702.416 561.427 702.416 542.618 696.045C506.116 683.68 465.765 676.816 423.333 676.816C380.902 676.816 340.551 683.68 304.049 696.045C285.24 702.416 264.76 702.416 245.951 696.045C209.449 683.68 169.098 676.816 126.667 676.816C81.3539 676.816 38.4139 684.644 0 698.64V0Z" fill="url(#paint0_linear)"/>
<defs>
<linearGradient id="paint0_linear" x1="1440" y1="2.99906e-06" x2="376.314" y2="1105.67" gradientUnits="userSpaceOnUse">
<stop stop-color="#2C73FF" stop-opacity="0.7"/>
<stop offset="0.30374" stop-color="#2055BD" stop-opacity="0.825489"/>
<stop offset="0.540762" stop-color="#0F3377" stop-opacity="0.923413"/>
<stop offset="0.726138" stop-color="#0F2757"/>
<stop offset="1" stop-color="#040C1B"/>
</linearGradient>
</defs>
</svg>
