<svg width="1440" height="939" viewBox="0 0 1440 939" fill="none" xmlns="http://www.w3.org/2000/svg">
<path fill-rule="evenodd" clip-rule="evenodd" d="M0 0H670.357C690.308 63.7539 834.989 162.705 1118.9 162.705C1402.82 162.705 1440 268.431 1440 380V938.31C1401.59 919.513 1358.65 909 1313.33 909C1274.1 909 1236.65 916.881 1202.37 931.195C1178.56 941.138 1151.44 941.138 1127.63 931.195C1093.35 916.881 1055.9 909 1016.67 909C977.435 909 939.981 916.881 905.704 931.195C881.896 941.138 854.771 941.138 830.963 931.195C796.686 916.881 759.232 909 720 909C680.768 909 643.314 916.881 609.037 931.195C585.229 941.138 558.104 941.138 534.296 931.195C500.019 916.881 462.566 909 423.333 909C384.101 909 346.648 916.881 312.37 931.195C288.563 941.138 261.437 941.138 237.63 931.195C203.352 916.881 165.899 909 126.667 909C81.3539 909 38.4139 919.513 0 938.31V0Z" fill="url(#paint0_linear)"/>
<defs>
<linearGradient id="paint0_linear" x1="1440" y1="4.0168e-06" x2="58.8829" y2="1071.88" gradientUnits="userSpaceOnUse">
<stop stop-color="#2C73FF" stop-opacity="0.7"/>
<stop offset="0.30374" stop-color="#2055BD" stop-opacity="0.825489"/>
<stop offset="0.540762" stop-color="#0F3377" stop-opacity="0.923413"/>
<stop offset="0.726138" stop-color="#0F2757"/>
<stop offset="1" stop-color="#040C1B"/>
</linearGradient>
</defs>
</svg>
